<?xml version="1.0" encoding="utf-8"?>
<!-- Generator: Adobe Illustrator 16.0.0, SVG Export Plug-In . SVG Version: 6.00 Build 0)  -->
<!DOCTYPE svg PUBLIC "-//W3C//DTD SVG 1.1//EN" "http://www.w3.org/Graphics/SVG/1.1/DTD/svg11.dtd">
<svg version="1.1" id="Layer_1" xmlns="http://www.w3.org/2000/svg" xmlns:xlink="http://www.w3.org/1999/xlink" x="0px" y="0px"
	 width="512px" height="512px" viewBox="0 0 512 512" enable-background="new 0 0 512 512" xml:space="preserve">
<path id="picture-multi-3-icon" fill="#017BCD" d="M126.4,118.99V462h327.484V118.99H126.4z M419.016,383.415H161.27V153.859
	h257.746V383.415z M291.439,185.686 M385.6,50v34.869H92.984V398.01H58.115V50H385.6z"/>
<path id="gear-5-icon" fill="none" stroke="#017BCD" stroke-width="9" stroke-miterlimit="10" d="M355.518,277.807V259.49
	l-16.257-5.781c-1.122-3.893-2.673-7.603-4.595-11.079l7.41-15.589l-12.951-12.952l-15.589,7.411
	c-3.477-1.922-7.188-3.473-11.08-4.595l-5.781-16.257H278.36l-5.781,16.257c-3.893,1.122-7.603,2.673-11.079,4.595l-15.59-7.411
	l-12.95,12.952l7.41,15.589c-1.922,3.477-3.473,7.187-4.595,11.079l-16.257,5.781v18.316l16.257,5.78
	c1.122,3.893,2.673,7.604,4.595,11.079l-7.41,15.59l12.95,12.951l15.59-7.411c3.477,1.923,7.187,3.473,11.079,4.596l5.781,16.257
	h18.315l5.781-16.257c3.893-1.122,7.604-2.673,11.08-4.596l15.589,7.411l12.951-12.951l-7.41-15.59
	c1.922-3.476,3.474-7.187,4.595-11.079L355.518,277.807z M287.518,293.586c-13.772,0-24.938-11.165-24.938-24.938
	s11.165-24.938,24.938-24.938s24.938,11.165,24.938,24.938S301.291,293.586,287.518,293.586z"/>
<line fill="none" stroke="#017BCD" stroke-width="6" stroke-miterlimit="10" x1="219.518" y1="259.49" x2="179.5" y2="259.49"/>
<line fill="none" stroke="#017BCD" stroke-width="6" stroke-miterlimit="10" x1="219.518" y1="277.807" x2="179.5" y2="277.807"/>
<line fill="none" stroke="#017BCD" stroke-width="6" stroke-miterlimit="10" x1="296.676" y1="200.649" x2="372.5" y2="200.649"/>
<line fill="none" stroke="#017BCD" stroke-width="6" stroke-miterlimit="10" x1="296.676" y1="336.649" x2="393.5" y2="336.649"/>
<line fill="none" stroke="#017BCD" stroke-width="6" stroke-miterlimit="10" x1="372.5" y1="200.649" x2="393.5" y2="200.649"/>
<line fill="#017BCD" stroke="#017BCD" stroke-width="6" stroke-miterlimit="10" x1="383" y1="189.5" x2="383" y2="347.5"/>
<line fill="none" stroke="#017BCD" stroke-width="7" stroke-miterlimit="10" x1="187.5" y1="243.5" x2="187.5" y2="291.5"/>
</svg>
